HIERARCHY
ROOT Hips
{
	OFFSET 0.000000 0.000000 0.000000 
	CHANNELS 6 Xposition Yposition Zposition Zrotation Yrotation Xrotation
	JOINT LHipJoint
	{
		OFFSET 0.000000 0.000000 0.000000 
		CHANNELS 3 Zrotation Yrotation Xrotation
		JOINT LeftUpLeg
		{
			OFFSET 0.049174 -0.055197 0.022926 
			CHANNELS 3 Zrotation Yrotation Xrotation
			JOINT LeftLeg
			{
				OFFSET 0.075187 -0.206577 0.000000 
				CHANNELS 3 Zrotation Yrotation Xrotation
				JOINT LeftFoot
				{
					OFFSET 0.083177 -0.228528 0.000000 
					CHANNELS 3 Zrotation Yrotation Xrotation
					JOINT LeftToeBase
					{
						OFFSET 0.006522 -0.017919 0.066408 
						CHANNELS 3 Zrotation Yrotation Xrotation
						End Site
						{
							OFFSET 0.000000 -0.000000 0.034549 
						}
					}
				}
			}
		}
	}
	JOINT RHipJoint
	{
		OFFSET 0.000000 0.000000 0.000000 
		CHANNELS 3 Zrotation Yrotation Xrotation
		JOINT RightUpLeg
		{
			OFFSET -0.046656 -0.055197 0.022926 
			CHANNELS 3 Zrotation Yrotation Xrotation
			JOINT RightLeg
			{
				OFFSET -0.076145 -0.209206 0.000000 
				CHANNELS 3 Zrotation Yrotation Xrotation
				JOINT RightFoot
				{
					OFFSET -0.082175 -0.225773 0.000000 
					CHANNELS 3 Zrotation Yrotation Xrotation
					JOINT RightToeBase
					{
						OFFSET -0.008058 -0.022138 0.069332 
						CHANNELS 3 Zrotation Yrotation Xrotation
						End Site
						{
							OFFSET -0.000000 -0.000000 0.036391 
						}
					}
				}
			}
		}
	}
	JOINT LowerBack
	{
		OFFSET 0.000000 0.000000 0.000000 
		CHANNELS 3 Zrotation Yrotation Xrotation
		JOINT Spine
		{
			OFFSET -0.000011 0.066375 -0.007953 
			CHANNELS 3 Zrotation Yrotation Xrotation
			JOINT Spine1
			{
				OFFSET 0.001748 0.066993 -0.001037 
				CHANNELS 3 Zrotation Yrotation Xrotation
				JOINT Neck
				{
					OFFSET 0.000000 0.000000 0.000000 
					CHANNELS 3 Zrotation Yrotation Xrotation
					JOINT Neck1
					{
						OFFSET -0.003073 0.050852 0.007566 
						CHANNELS 3 Zrotation Yrotation Xrotation
						JOINT Head
						{
							OFFSET 0.003390 0.051888 -0.007078 
							CHANNELS 3 Zrotation Yrotation Xrotation
							End Site
							{
								OFFSET 0.001370 0.052583 -0.003294 
							}
						}
					}
				}
				JOINT LeftShoulder
				{
					OFFSET 0.000000 0.000000 0.000000 
					CHANNELS 3 Zrotation Yrotation Xrotation
					JOINT LeftArm
					{
						OFFSET 0.102846 0.024812 -0.021306 
						CHANNELS 3 Zrotation Yrotation Xrotation
						JOINT LeftForeArm
						{
							OFFSET 0.161034 -0.000000 -0.000000 
							CHANNELS 3 Zrotation Yrotation Xrotation
							JOINT LeftHand
							{
								OFFSET 0.117231 -0.000000 -0.000000 
								CHANNELS 3 Zrotation Yrotation Xrotation
								JOINT LeftFingerBase
								{
									OFFSET 0.000000 0.000000 0.000000 
									CHANNELS 3 Zrotation Yrotation Xrotation
									JOINT LeftHandIndex1
									{
										OFFSET 0.016537 -0.000000 0.000000 
										CHANNELS 3 Zrotation Yrotation Xrotation
										End Site
										{
											OFFSET 0.013332 -0.000000 0.000000 
										}
									}
								}
								JOINT LThumb
								{
									OFFSET 0.000000 0.000000 0.000000 
									CHANNELS 3 Zrotation Yrotation Xrotation
									End Site
									{
										OFFSET 0.013536 -0.000000 0.013536 
									}
								}
							}
						}
					}
				}
				JOINT RightShoulder
				{
					OFFSET 0.000000 0.000000 0.000000 
					CHANNELS 3 Zrotation Yrotation Xrotation
					JOINT RightArm
					{
						OFFSET -0.096067 0.033214 -0.013856 
						CHANNELS 3 Zrotation Yrotation Xrotation
						JOINT RightForeArm
						{
							OFFSET -0.165504 -0.000000 0.000000 
							CHANNELS 3 Zrotation Yrotation Xrotation
							JOINT RightHand
							{
								OFFSET -0.117545 -0.000000 -0.000000 
								CHANNELS 3 Zrotation Yrotation Xrotation
								JOINT RightFingerBase
								{
									OFFSET 0.000000 0.000000 0.000000 
									CHANNELS 3 Zrotation Yrotation Xrotation
									JOINT RightHandIndex1
									{
										OFFSET -0.023354 -0.000000 0.000000 
										CHANNELS 3 Zrotation Yrotation Xrotation
										End Site
										{
											OFFSET -0.018828 -0.000000 0.000000 
										}
									}
								}
								JOINT RThumb
								{
									OFFSET 0.000000 0.000000 0.000000 
									CHANNELS 3 Zrotation Yrotation Xrotation
									End Site
									{
										OFFSET -0.019116 -0.000000 0.019116 
									}
								}
							}
						}
					}
				}
			}
		}
	}
}
MOTION
Frames: 4
Frame Time: 0.008333
0.029653 0.562909 -1.017891 -4.053700 1.805000 6.129000 0.000000 0.000000 0.000000 -14.735800 -11.406600 -32.827202 2.207300 9.285100 26.691401 0.094100 -2.073400 6.947100 0.458900 -4.345700 -12.051300 0.000000 0.000000 0.000000 31.031000 4.790400 12.048700 -5.924400 -14.354700 44.677700 -0.544100 -10.493100 14.077200 -0.070800 -1.716500 4.722800 4.988600 2.297500 8.253300 3.257300 3.625200 1.044400 0.182500 1.750300 -3.444900 -9.470500 -5.913600 -18.403601 6.360100 -6.558000 10.751300 2.842700 -3.020200 6.801000 -0.000000 -0.000000 0.000000 -88.497299 29.024599 35.703899 115.072304 -57.486099 -81.529999 -0.000000 0.000000 -28.725201 16.305799 8.879100 2.585300 -7.125000 0.000000 -0.000000 -9.189200 39.067299 1.356600 -0.000000 -0.000000 0.000000 82.604301 -9.623500 40.653099 -139.120300 48.582500 -100.903702 0.000000 -0.000000 -7.228000 -17.818800 23.402500 -7.275400 7.125000 -0.000000 -0.000000 7.018300 -5.688000 6.337000 
0.029397 0.560938 -1.005166 -3.718600 1.776200 5.872300 0.000000 0.000000 0.000000 -15.410100 -10.979500 -31.842100 2.168600 9.208900 26.450899 0.100500 -2.745000 7.652300 0.290000 -3.462900 -9.570200 0.000000 0.000000 0.000000 30.579399 4.920400 10.567000 -6.970000 -15.306600 48.760799 -0.575300 -10.941700 14.523700 -0.032500 -1.163000 3.197400 2.630800 1.269500 8.543100 4.559600 2.268400 -1.471800 2.991800 1.111300 -6.438500 -11.208600 -3.728800 -7.138200 6.158100 -4.353800 7.701400 3.456600 -2.191400 3.845700 0.000000 0.000000 0.000000 -92.640503 35.106602 32.105598 117.008797 -57.055698 -83.159103 -0.000000 0.000000 -28.408501 16.445900 8.840700 2.597500 -7.125000 0.000000 -0.000000 -9.062800 39.038399 1.344100 0.000000 0.000000 0.000000 79.470001 -15.806700 44.766499 -139.369797 48.438900 -101.090599 0.000000 -0.000000 -7.352900 -17.778601 23.182199 -7.194200 7.125000 -0.000000 -0.000000 7.027300 -5.919000 6.313900 
0.029259 0.558438 -0.992350 -3.277100 1.489500 5.680200 0.000000 0.000000 0.000000 -16.203800 -10.431100 -31.310600 2.297200 9.459600 27.243700 0.049000 -3.928300 7.331200 0.035400 -1.215000 -3.340600 0.000000 0.000000 0.000000 29.855499 5.182500 9.148500 -8.106300 -16.196899 52.944599 -0.507700 -10.897000 13.835900 -0.017600 -0.856900 2.355100 1.161700 0.821300 8.917100 5.053400 1.574800 -1.765200 4.451900 0.843000 -6.996900 -12.096200 -3.183800 -6.338600 6.044500 -3.626700 8.389900 3.620100 -1.888900 3.874600 0.000000 0.000000 0.000000 -94.566597 35.500198 30.392799 117.779404 -56.873199 -83.805099 -0.000000 0.000000 -28.303900 16.636200 9.007100 2.678300 -7.125000 0.000000 -0.000000 -8.928600 39.223801 1.282700 0.000000 0.000000 0.000000 77.960899 -17.079300 46.599499 -139.074600 48.608700 -100.869400 0.000000 -0.000000 -7.177900 -16.370300 20.716400 -5.932500 7.125000 -0.000000 -0.000000 7.765300 -8.626500 6.575000 
0.029009 0.555347 -0.979881 -2.817300 1.416800 5.319000 0.000000 0.000000 0.000000 -17.131901 -9.728700 -30.746700 2.503100 9.843500 28.471300 -0.066900 -5.796100 5.890700 0.002800 0.339200 0.932100 0.000000 0.000000 0.000000 29.044600 5.082300 7.758200 -9.267200 -16.976601 57.009499 -0.470300 -10.602000 13.352300 -0.038000 -1.258700 3.460800 0.358800 0.744900 9.122000 4.992200 1.366000 -1.409900 4.870700 0.765700 -6.737900 -12.127500 -2.943500 -6.731600 6.221000 -3.251000 7.565000 3.697700 -1.674600 3.657100 -0.000000 -0.000000 0.000000 -94.365700 34.467999 30.726601 118.384697 -56.725201 -84.311600 -0.000000 0.000000 -28.177000 17.170401 9.143400 2.811000 -7.125000 0.000000 -0.000000 -8.493600 39.405499 1.180900 -0.000000 -0.000000 0.000000 77.841698 -17.075500 46.669102 -138.409698 48.984402 -100.369202 0.000000 -0.000000 -7.050700 -17.145700 21.025200 -6.316200 7.125000 -0.000000 -0.000000 7.287200 -8.212000 6.223500 
